<?xml version="1.0" standalone="no"?>
<!DOCTYPE svg PUBLIC "-//W3C//DTD SVG 20010904//EN"
 "http://www.w3.org/TR/2001/REC-SVG-20010904/DTD/svg10.dtd">
<svg version="1.0" xmlns="http://www.w3.org/2000/svg"
 width="512.000000pt" height="512.000000pt" viewBox="0 0 512.000000 512.000000"
 preserveAspectRatio="xMidYMid meet">
<metadata>
Created by potrace 1.14, written by Peter Selinger 2001-2017
</metadata>
<g transform="translate(0.000000,512.000000) scale(0.100000,-0.100000)"
fill="#000000" stroke="none">
<path d="M2393 5025 c-281 -51 -525 -225 -669 -477 l-38 -68 -752 -2 -752 -3
-39 -31 c-21 -17 -43 -46 -50 -65 -17 -48 -17 -1030 0 -1078 7 -19 29 -48 50
-65 l39 -31 289 -3 289 -3 105 -139 c114 -151 139 -171 220 -176 56 -3 100 14
141 54 40 41 54 86 54 178 l0 84 163 0 162 0 2 -53 c4 -73 19 -146 54 -257 17
-52 32 -100 35 -107 3 -7 -24 -26 -68 -48 -40 -20 -77 -40 -83 -46 -15 -15
-25 -10 -25 11 0 19 -7 20 -240 20 l-240 0 0 -320 0 -320 63 0 63 0 -48 -237
c-26 -131 -49 -249 -52 -263 -3 -14 -8 -36 -12 -50 -3 -14 -7 -76 -9 -138 -3
-145 18 -245 79 -367 78 -156 171 -253 335 -351 58 -34 81 -54 82 -68 0 -12 2
-28 3 -36 4 -18 16 -109 23 -165 18 -154 66 -234 178 -293 l50 -27 765 0 765
0 45 23 c113 57 168 147 185 303 3 31 7 65 9 75 2 11 7 47 11 80 l7 62 89 53
c203 120 328 283 385 504 19 75 22 109 19 205 -2 63 -11 149 -20 190 -9 41
-19 86 -21 100 -3 14 -16 79 -29 145 -14 66 -28 138 -31 160 -3 22 -8 43 -10
46 -6 10 -18 81 -18 113 -1 29 1 30 64 42 428 80 810 412 956 831 50 143 66
232 69 388 3 163 -12 279 -55 415 -82 263 -238 482 -465 649 -233 173 -484
252 -779 246 -157 -4 -172 -6 -304 -41 l-93 -25 -93 93 c-51 51 -99 98 -107
104 -33 25 -102 66 -159 95 -57 29 -200 82 -200 74 0 -2 -15 1 -32 6 -52 16
-274 19 -355 4z m-1033 -2479 c0 -8 -10 -27 -23 -43 -38 -45 -70 -102 -104
-183 l-32 -75 -1 158 0 157 80 0 c63 0 80 -3 80 -14z"/>
<path d="M80 2400 l0 -320 240 0 240 0 0 320 0 320 -240 0 -240 0 0 -320z
m320 0 l0 -160 -80 0 -80 0 0 160 0 160 80 0 80 0 0 -160z"/>
<path d="M720 2400 l0 -320 80 0 80 0 0 320 0 320 -80 0 -80 0 0 -320z"/>
<path d="M80 1600 l0 -320 80 0 80 0 0 320 0 320 -80 0 -80 0 0 -320z"/>
<path d="M400 1600 l0 -320 240 0 240 0 0 320 0 320 -240 0 -240 0 0 -320z
m320 0 l0 -160 -80 0 -80 0 0 160 0 160 80 0 80 0 0 -160z"/>
</g>
</svg>
